<svg xmlns="http://www.w3.org/2000/svg" xmlns:xlink="http://www.w3.org/1999/xlink" width="40" zoomAndPan="magnify" viewBox="0 0 30 30.000001" height="40" preserveAspectRatio="xMidYMid meet" version="1.0"><defs><g/></defs><g fill="#fe7be5" fill-opacity="1"><g transform="translate(3.629504, 26.147111)"><g><path d="M 10.707031 -23.992188 C 10.378906 -23.992188 10.226562 -23.8125 10.226562 -23.515625 L 10.226562 -10.855469 L 10.046875 -10.855469 L 5.488281 -23.605469 C 5.398438 -23.875 5.21875 -23.992188 4.949219 -23.992188 L 1.980469 -23.992188 C 1.679688 -23.992188 1.5 -23.8125 1.5 -23.515625 L 1.5 -0.480469 C 1.5 -0.179688 1.679688 0 1.980469 0 L 5.097656 0 C 5.429688 0 5.578125 -0.179688 5.578125 -0.480469 L 5.578125 -13.195312 L 5.730469 -13.195312 L 10.316406 -0.390625 C 10.40625 -0.121094 10.585938 0 10.855469 0 L 13.828125 0 C 14.125 0 14.304688 -0.179688 14.304688 -0.480469 L 14.304688 -23.515625 C 14.304688 -23.8125 14.125 -23.992188 13.828125 -23.992188 Z M 10.707031 -23.992188 "/></g></g></g><g fill="#4a2e6f" fill-opacity="1"><g transform="translate(19.440368, 26.147111)"><g><path d="M 1.5 -0.601562 C 1.5 -0.210938 1.710938 0 2.097656 0 L 4.828125 0 C 5.21875 0 5.429688 -0.210938 5.429688 -0.601562 L 5.429688 -3.359375 C 5.429688 -3.75 5.21875 -3.960938 4.828125 -3.960938 L 2.097656 -3.960938 C 1.710938 -3.960938 1.5 -3.75 1.5 -3.359375 Z M 1.5 -0.601562 "/></g></g></g></svg>